<?xml version="1.0" encoding="iso-8859-1"?>
  <!-- Uploaded to: SVG Repo, www.svgrepo.com, Generator: SVG Repo Mixer Tools -->
  <svg fill="#000000" height="800px" width="800px" version="1.1" id="Layer_1" xmlns="http://www.w3.org/2000/svg" xmlns:xlink="http://www.w3.org/1999/xlink" 
  	 viewBox="0 0 509.109 509.109" xml:space="preserve">
  <g>
  	<g>
  		<g>
  			<path d="M476.201,51.636l-12.253-12.253c-0.009-0.009-0.009-0.017-0.017-0.026l-24.541-24.541h-0.009L427.119,2.545
  				c-3.393-3.393-8.886-3.393-12.271,0c-3.393,3.384-3.393,8.878,0,12.271l6.135,6.135l-30.685,30.685l-18.406-18.415
  				c-3.254-3.254-9.016-3.254-12.271,0l-24.55,24.55c-3.384,3.393-3.384,8.878,0,12.271l-26.685,26.693l18.814,17.998l26.286-26.286
  				l12.271,12.279l-24.55,24.533l12.271,12.279l24.55-24.541l12.271,12.271l-25.461,25.461l18.814,17.998l25.053-25.053h0.009
  				c1.623,1.631,3.827,2.543,6.135,2.543c2.3,0,4.504-0.911,6.135-2.543l24.541-24.55c3.384-3.384,3.384-8.878,0-12.271
  				l-18.406-18.406l30.677-30.677l6.135,6.135c1.701,1.692,3.922,2.543,6.135,2.543c2.222,0,4.443-0.85,6.135-2.543
  				C479.594,60.514,479.594,55.029,476.201,51.636z M414.848,125.269l-30.685-30.685l12.271,12.271c0,0,0.009,0.009,0.009,0.017
  				l-24.559-24.567v0.009l-18.406-18.406l12.279-12.279l18.389,18.397c0.009,0,0.009,0.009,0.017,0.017l24.55,24.541l18.406,18.406
  				L414.848,125.269z"/>
            <path class="dash-1" d="M150.146,293.323c-4.495,4.504-6.968,10.474-6.968,16.827c0,3.749,0.955,7.315,2.577,10.57L58.94,407.533
  				c-3.384,3.393-3.384,8.886,0,12.271c1.701,1.701,3.914,2.543,6.135,2.543c2.222,0,4.443-0.842,6.135-2.543l86.354-86.346
  				c3.836,2.395,8.192,3.636,12.574,3.636c6.092,0,12.184-2.317,16.827-6.951l18.727-18.727l-36.1-37.541L150.146,293.323z"/>
  			<path class="dot-1" d="M69.726,435.06c-3.393-3.393-8.878-3.393-12.271,0L40.1,452.416c-6.274,6.274-9.737,14.622-9.737,23.491
  				s3.454,17.217,9.737,23.491c6.474,6.474,14.987,9.711,23.491,9.711s17.009-3.237,23.491-9.711
  				c12.956-12.948,12.956-34.035,0-46.982L69.726,435.06z"/>
  			
  			<polygon points="217.069,188.043 364.334,188.043 371.372,181.005 296.108,109.004 			"/>
  			<path d="M199.326,244.151l-17.451,17.451l36.092,37.541l18.979-18.987c3.957,0.955,8.044,1.501,12.219,1.501
  				c13.911,0,26.98-5.415,36.821-15.256l60.997-60.997H203.336C197.018,217.414,195.682,231.351,199.326,244.151z"/>
  		</g>
  	</g>
  </g>
  </svg>