<?xml version="1.0" encoding="iso-8859-1"?>
<!-- Uploaded to: SVG Repo, www.svgrepo.com, Generator: SVG Repo Mixer Tools -->
<svg height="800px" width="800px" version="1.1" id="Layer_1" xmlns="http://www.w3.org/2000/svg" xmlns:xlink="http://www.w3.org/1999/xlink" 
	 viewBox="0 0 512.001 512.001" xml:space="preserve">
<polygon style="fill:#7A797E;" points="224.85,175.82 256.159,11.38 287.467,175.82 "/>
<polygon style="opacity:0.61;fill:#403E43;enable-background:new    ;" points="231.798,140.291 225.034,175.82 287.65,175.82 
	280.885,140.291 "/>
<path style="fill:#AEADB1;" d="M285.239,277.366c18.972,12.769,40.083,31.733,40.083,52.907c0,38.448-31.169,98.427-69.617,98.427
	s-69.617-59.979-69.617-98.427c0-20.964,20.696-39.763,39.52-52.526L285.239,277.366z"/>
<path style="fill:#EEC021;" d="M420.424,358.429c-21.733-21.733-106.002-164.371-106.002-164.371S457.06,278.327,478.793,300.06
	c21.733,21.733,26.285,52.417,10.167,68.536C472.841,384.714,442.157,380.162,420.424,358.429z"/>
<path style="fill:#CCA51C;" d="M479.613,300.913c7.084,17.053,5.699,34.774-5.273,45.746
	c-16.118,16.118-46.803,11.566-68.536-10.167c-4.293-4.293-11.031-13.314-19.072-25.01c14.31,22.001,26.981,40.238,33.691,46.947
	c21.733,21.733,52.417,26.285,68.536,10.167C504.869,352.686,500.627,322.589,479.613,300.913z"/>
<path style="fill:#EEC021;" d="M90.988,358.429c21.733-21.733,106.002-164.371,106.002-164.371S54.352,278.327,32.619,300.06
	c-21.733,21.733-26.285,52.417-10.167,68.536C38.57,384.714,69.255,380.162,90.988,358.429z"/>
<path style="fill:#7A797E;" d="M186.089,224.827c0-38.448,31.169-69.617,69.617-69.617s69.617,31.169,69.617,69.617
	s-69.617,69.617-69.617,69.617S186.089,263.276,186.089,224.827z"/>
<path style="opacity:0.42;fill:#403E43;enable-background:new    ;" d="M285.328,277.55c18.901-12.767,39.813-31.651,39.813-52.723
	c0-38.448-31.169-69.617-69.617-69.617c-0.248,0-0.494,0.016-0.742,0.018c24.564,10.752,41.735,35.261,41.735,63.792
	c0,21.072-5.953,54.362-24.853,67.128c19.587,5.807,24.853,17.245,24.853,38.317c0,36.15-27.554,91.326-62.805,97.796
	c6.862,4.076,14.192,6.438,21.811,6.438c38.448,0,69.617-59.979,69.617-98.427C325.14,309.2,304.229,290.316,285.328,277.55z"/>
<g>
  <circle class="dot-1" style="fill:#EEC021;" cx="225.114" cy="140.293" r="19.5"/>
	<circle class="dot-2" style="fill:#EEC021;" cx="284.792" cy="140.293" r="19.5"/>
</g>
<path style="fill:#CCA51C;" d="M31.793,300.913c-7.084,17.053-5.699,34.774,5.273,45.746c16.118,16.118,46.803,11.566,68.536-10.167
	c4.293-4.293,11.031-13.314,19.072-25.01c-14.31,22.001-26.981,40.238-33.691,46.947c-21.733,21.733-52.417,26.285-68.536,10.167
	C6.538,352.686,10.779,322.589,31.793,300.913z"/>
<path d="M255.705,183.292c-4.197,0-7.6,3.403-7.6,7.6v33.934c0,4.197,3.403,7.6,7.6,7.6s7.6-3.403,7.6-7.6v-33.934
	C263.305,186.695,259.903,183.292,255.705,183.292z"/>
<path d="M228.157,185.518l-23.996,23.996c-2.968,2.968-2.968,7.781,0,10.748c1.484,1.484,3.429,2.226,5.374,2.226
	c1.945,0,3.89-0.742,5.374-2.226l23.996-23.996c2.968-2.968,2.968-7.781,0-10.748C235.938,182.551,231.125,182.551,228.157,185.518z
	"/>
<path d="M270.584,185.518c-2.968,2.968-2.968,7.781,0,10.748l23.995,23.996c1.484,1.485,3.429,2.226,5.374,2.226
	s3.89-0.742,5.374-2.226c2.968-2.968,2.968-7.781,0-10.748l-23.995-23.996C278.365,182.55,273.553,182.551,270.584,185.518z"/>
<path d="M511.374,335.319c-2.158-14.546-9.766-28.977-21.422-40.633c-18.23-18.23-114.75-76.645-151.676-98.721l40.935-20.956
	c2.54-1.3,4.138-3.913,4.138-6.765v-57.365h21.33c4.197,0,7.6-3.403,7.6-7.6c0-4.197-3.403-7.6-7.6-7.6h-28.93
	c-4.197,0-7.6,3.403-7.6,7.6v60.318l-45.29,23.185c-5.523-9.709-13.084-18.105-22.105-24.61c6.744-4.934,11.136-12.902,11.136-21.88
	c0-14.942-12.157-27.099-27.099-27.099c-0.504,0-1.004,0.016-1.502,0.044L263.626,9.958c-0.682-3.585-3.817-6.179-7.467-6.179
	c-3.649,0-6.784,2.594-7.467,6.179l-19.708,103.515c-1.266-0.182-2.558-0.281-3.872-0.281c-14.943,0-27.1,12.157-27.1,27.099
	c0,9.31,4.719,17.537,11.891,22.417c-8.537,6.311-15.72,14.341-21.06,23.569l-44.307-22.682v-60.318c0-4.197-3.403-7.6-7.6-7.6
	h-28.93c-4.197,0-7.6,3.403-7.6,7.6c0,4.197,3.403,7.6,7.6,7.6h21.33v57.365c0,2.853,1.598,5.465,4.138,6.765l40.567,20.767
	c-36.693,21.932-133.711,80.629-151.991,98.909c-11.656,11.656-19.263,26.086-21.422,40.633
	c-2.282,15.385,1.715,29.112,11.255,38.652c7.788,7.788,18.364,11.882,30.356,11.882c2.699,0,5.47-0.208,8.296-0.627
	c14.546-2.158,28.977-9.766,40.633-21.422c15.718-15.718,61.313-89.641,87.731-133.385c2.644,18.528,17.977,34.817,33.994,47.104
	c-22.833,17.353-34.401,35.068-34.401,52.751c0,3.245,0.202,6.628,0.592,10.105l-45.608,23.348c-2.54,1.3-4.138,3.913-4.138,6.765
	v57.365h-21.33c-4.197,0-7.6,3.403-7.6,7.6s3.403,7.6,7.6,7.6h28.93c4.197,0,7.6-3.403,7.6-7.6v-60.318l37.416-19.154
	c4.468,17.811,13.058,36.48,24.574,51.333l-42.139,21.572c-2.54,1.3-4.138,3.913-4.138,6.765v57.365h-21.33
	c-4.197,0-7.6,3.403-7.6,7.6s3.403,7.6,7.6,7.6h28.93c4.197,0,7.6-3.403,7.6-7.6v-60.318l41.623-21.307
	c11.229,10.547,24.358,17.305,38.632,17.305c14.464,0,27.753-6.932,39.079-17.72l42.435,21.723v60.318c0,4.197,3.403,7.6,7.6,7.6
	h28.93c4.197,0,7.6-3.403,7.6-7.6s-3.403-7.6-7.6-7.6h-21.33v-57.365c0-2.853-1.598-5.465-4.138-6.765l-43.039-22.033
	c11.459-14.939,19.98-33.649,24.36-51.45l38.543,19.731v60.318c0,4.197,3.403,7.6,7.6,7.6h28.93c4.197,0,7.6-3.403,7.6-7.6
	s-3.403-7.6-7.6-7.6h-21.33v-57.365c0-2.853-1.598-5.465-4.138-6.765l-46.817-23.968c0.347-3.26,0.529-6.435,0.529-9.486
	c0-17.689-11.569-35.402-34.401-52.751c16.248-12.465,31.789-29.049,34.096-47.911c26.34,43.635,72.402,118.378,88.217,134.192
	c11.656,11.656,26.087,19.263,40.633,21.422c2.826,0.42,5.596,0.627,8.296,0.627c11.991,0,22.569-4.094,30.356-11.882
	C509.659,364.43,513.656,350.703,511.374,335.319z M296.688,140.291c0,6.562-5.338,11.899-11.898,11.899
	c-6.562,0-11.899-5.337-11.899-11.899c0-6.561,5.338-11.898,11.899-11.898C291.351,128.392,296.688,133.73,296.688,140.291z
	 M225.112,128.392c6.561,0,11.898,5.337,11.898,11.898c0,6.562-5.338,11.899-11.898,11.899c-6.562,0-11.899-5.337-11.899-11.899
	C213.213,133.73,218.55,128.392,225.112,128.392z M243.087,120.036c0.151-0.401,0.277-0.818,0.36-1.254l12.712-66.767l12.644,66.412
	c-6.731,4.935-11.113,12.895-11.113,21.863c0,2.564,0.366,5.044,1.035,7.396c-1.003-0.039-2.007-0.077-3.02-0.077
	c-1.528,0-3.042,0.057-4.548,0.145c0.681-2.373,1.054-4.875,1.054-7.465C252.211,132.241,248.679,125.003,243.087,120.036z
	 M80.418,353.055c-9.367,9.367-20.771,15.451-32.114,17.134c-10.501,1.558-19.621-0.916-25.672-6.967s-8.526-15.168-6.967-25.672
	c1.683-11.343,7.768-22.748,17.134-32.114c14.072-14.072,85.638-58.531,137.079-89.458
	C138.949,267.416,94.49,338.981,80.418,353.055z M317.722,330.273c0,17.842-7.538,41.217-19.203,59.552
	C285.873,409.7,270.268,421.1,255.705,421.1s-30.168-11.4-42.814-31.275c-11.665-18.334-19.203-41.71-19.203-59.553
	c0-16.558,16.767-32.405,32.332-43.548c13.732,8.829,25.391,14.126,26.578,14.657c0.988,0.443,2.047,0.664,3.106,0.664
	c1.059,0,2.118-0.221,3.106-0.664c1.187-0.531,12.847-5.829,26.579-14.658C301.049,297.932,317.722,313.747,317.722,330.273z
	 M282.917,270.135c-1.354,0.434-2.595,1.244-3.548,2.405c-8.763,5.802-17.345,10.48-23.665,13.522
	c-19.85-9.552-62.016-35.242-62.016-61.233c0-34.196,27.82-62.016,62.016-62.016s62.016,27.82,62.016,62.016
	C317.722,241.428,300.519,257.906,282.917,270.135z M489.371,363.221c-6.051,6.051-15.166,8.526-25.673,6.967
	c-11.343-1.683-22.749-7.768-32.114-17.134c-14.072-14.072-58.53-85.638-89.458-137.078c51.44,30.928,123.006,75.386,137.079,89.458
	c9.367,9.367,15.451,20.771,17.134,32.114C497.896,348.053,495.422,357.17,489.371,363.221z"/>
</svg>