<?xml version="1.0" encoding="UTF-8"?>
<!DOCTYPE svg PUBLIC "-//W3C//DTD SVG 1.1//EN" "http://www.w3.org/Graphics/SVG/1.1/DTD/svg11.dtd">
<!-- Creator: CorelDRAW -->
<svg xmlns="http://www.w3.org/2000/svg" xml:space="preserve" width="2048px" height="2048px" style="shape-rendering:geometricPrecision; text-rendering:geometricPrecision; image-rendering:optimizeQuality; fill-rule:evenodd; clip-rule:evenodd"
viewBox="0 0 2048 2048"
 xmlns:xlink="http://www.w3.org/1999/xlink">
 <defs>
  <style type="text/css">
   <![CDATA[
    .fil1 {fill:none}
    .fil0 {fill:#424242;fill-rule:nonzero}
   ]]>
  </style>
 </defs>
 <g id="Layer_x0020_1">
  <metadata id="CorelCorpID_0Corel-Layer"/>
  <path d="M439.346 580.797c2.13189,0 4.29095,0.0543308 6.47363,0.16063 5.51457,-45.9756 22.7752,-87.365 47.8323,-119.15 32.4414,-41.1532 77.8666,-66.6107 128.581,-66.6107 16.8827,0 33.2445,2.86181 48.7985,8.22284 0.559843,0.19252 1.11969,0.389764 1.67717,0.589371 9.60119,-34.7634 26.1981,-65.6493 47.6965,-90.0095 31.8355,-36.0733 74.3068,-58.0028 121.29,-58.0028 32.1851,0 62.3953,10.4209 88.6477,28.7374 14.0445,9.79843 26.8748,21.8799 38.1626,35.8252 14.9126,-14.9965 31.376,-27.763 49.0618,-37.8792 29.9681,-17.1425 63.2918,-26.6835 98.4544,-26.6835 51.0626,0 98.1225,20.028 136.53,54.1559 27.6886,24.6036 50.8087,56.6256 67.48,93.6768 9.65906,-6.12638 19.7221,-11.4496 30.1335,-15.9012 24.1595,-10.3299 49.9784,-15.9307 76.7634,-15.9307 59.0174,0 112.7,26.8288 153.8,71.2749 36.8209,39.8185 63.4052,93.8918 74.1142,155.065 37.839,22.3488 69.9012,56.7874 92.9103,99.195 24.7323,45.5835 39.2114,100.623 39.2114,159.742 0,77.8253 -25.1445,148.635 -65.7981,200.205 -42.3709,53.7496 -101.512,86.9965 -167.378,86.9965 -7.23898,0 -14.6421,-0.447638 -22.1776,-1.32165l-0.862205 -0.102756c-19.0677,23.6717 -41.4768,43.2615 -66.3083,57.6059 -30.2398,17.4673 -63.8563,27.202 -99.2753,27.202 -29.3717,0 -57.5599,-6.72048 -83.6552,-19.0146 -17.954,-8.45906 -34.8532,-19.6205 -50.387,-33.0886 -10.6949,6.31772 -22.6996,11.687 -35.7059,16.148 -52.8662,18.137 -125.985,22.5414 -192.809,15.0036 -61.4634,-6.93426 -119.204,-24.4299 -154.045,-51.2469 -16.7374,22.3288 -36.3567,41.3941 -58.1563,56.3032 -33.6107,22.9866 -72.1926,36.0355 -113.308,36.0355 -62.9823,0 -119.809,-30.4146 -161.707,-80.0989 -33.7925,-40.0701 -57.828,-92.9186 -67.1197,-152.205 -3.01654,0.199606 -5.99292,0.301181 -8.92442,0.301181 -50.7142,0 -96.1394,-25.4575 -128.581,-66.6107 -30.724,-38.974 -49.728,-92.3859 -49.728,-150.99 0,-58.604 19.004,-112.015 49.728,-150.989 32.4425,-41.1555 77.8666,-66.6107 128.581,-66.6107z"/>
  <path class="dash-1" fill="#424242" d="M824.492 1226.49c0.810237,25.9335 1.04764,54.9922 0.630709,87.5398 -1.24725,97.3926 -8.3752,225.306 -23.5311,392.898 -1.35236,7.60394 0.0259843,15.7181 4.49292,22.7516l0.022441 -0.0141732c6.15473,9.68268 15.0555,18.0272 26.1933,25.1008 39.0851,24.8232 116.074,37.2355 191.7,37.2355 75.626,0 152.615,-12.4122 191.7,-37.2355 10.5248,-6.68504 19.05,-14.5028 25.1504,-23.5134 4.36181,-6.03898 6.64843,-13.6193 5.92323,-21.6213l-0.119291 0.0106299c-13.8295,-152.44 -16.2083,-271.25 -11.6776,-363.851 2.26417,-46.2898 6.24449,-85.7942 11.3622,-119.518 -6.50788,-3.913 -12.8327,-8.12717 -18.965,-12.6106 -7.05237,3.18307 -14.2701,6.00591 -21.5752,8.51103 -62.4437,21.4205 -141.212,23.9303 -206.779,16.5331 -46.0618,-5.19567 -100.749,-17.2772 -143.945,-40.8614 -9.46772,10.2921 -19.676,19.8933 -30.5835,28.6453z"/>
 </g>
 <rect fill="none" width="2048" height="2048"/>
</svg>
